<?xml version="1.0" standalone="no"?>
<!DOCTYPE svg PUBLIC "-//W3C//DTD SVG 20010904//EN"
 "http://www.w3.org/TR/2001/REC-SVG-20010904/DTD/svg10.dtd">
<svg version="1.0" xmlns="http://www.w3.org/2000/svg"
 width="360.000000pt" height="360.000000pt" viewBox="0 0 360.000000 360.000000"
 preserveAspectRatio="xMidYMid meet">

<g transform="translate(0.000000,360.000000) scale(0.100000,-0.100000)"
fill="#000000" stroke="none">
<path d="M2624 3222 c-68 -24 -120 -67 -195 -160 -179 -221 -329 -522 -399
-798 -9 -38 -14 -42 -48 -47 -20 -3 -47 -9 -58 -12 -17 -5 -23 -1 -28 22 -18
72 -94 141 -174 158 -51 10 -125 -12 -171 -52 -61 -51 -81 -98 -81 -183 0 -80
-10 -105 -98 -239 -77 -117 -161 -219 -227 -276 -61 -52 -71 -87 -27 -93 50
-7 190 141 319 336 41 62 80 115 87 118 7 3 33 -5 57 -18 31 -16 61 -23 100
-23 l57 0 6 -57 c7 -70 -30 -210 -99 -373 -83 -195 -79 -179 -74 -305 2 -63 4
-214 4 -335 -1 -179 -4 -233 -19 -288 -14 -54 -15 -71 -6 -82 34 -41 66 2 87
117 12 67 14 141 9 388 -5 331 -8 306 54 450 18 41 47 117 65 168 l31 92 18
-37 c10 -21 43 -76 74 -123 l57 -84 -2 -76 c-1 -41 -6 -133 -11 -205 -14 -185
-7 -629 12 -739 13 -83 25 -105 52 -106 27 0 35 28 25 87 -34 190 -38 542 -10
855 14 156 8 200 -36 269 -18 30 -33 55 -31 56 1 1 20 -2 41 -8 39 -11 161 -7
203 6 20 7 22 4 22 -33 0 -56 33 -222 60 -301 102 -304 306 -525 601 -651 125
-53 202 -37 247 50 25 49 25 68 -4 225 -70 387 -241 702 -478 880 -57 42 -168
100 -240 125 -98 33 -72 40 151 40 242 0 392 12 590 45 149 25 198 44 258 97
70 61 100 164 75 253 -17 62 -85 136 -152 166 -72 33 -196 31 -371 -5 -238
-49 -497 -154 -686 -278 -79 -52 -85 -55 -110 -42 -14 8 -32 14 -40 14 -19 0
-9 56 35 188 96 290 333 664 467 738 108 58 238 21 276 -79 16 -42 13 -133 -5
-170 -25 -48 -98 -149 -181 -248 -77 -93 -88 -123 -51 -135 27 -8 70 36 191
193 128 168 155 246 123 357 -42 143 -198 220 -342 168z m663 -768 c77 -28
133 -122 118 -197 -10 -50 -50 -104 -97 -131 -80 -46 -356 -85 -674 -93 -300
-8 -309 -6 -356 57 l-37 49 88 55 c254 157 519 247 826 279 41 4 82 -2 132
-19z m-1697 -198 c0 -2 -8 -10 -17 -17 -16 -13 -17 -12 -4 4 13 16 21 21 21
13z m104 -214 c3 -5 -1 -9 -9 -9 -8 0 -12 4 -9 9 3 4 7 8 9 8 2 0 6 -4 9 -8z
m936 -334 l40 -31 -32 -59 c-38 -71 -102 -132 -173 -164 -57 -26 -149 -42
-157 -28 -3 5 -9 28 -13 52 -6 37 -4 42 12 42 31 0 139 56 180 94 22 20 51 56
64 81 13 25 28 45 32 45 5 0 26 -14 47 -32z m249 -311 l24 -44 -31 -45 c-65
-95 -182 -180 -297 -217 -114 -36 -110 -37 -145 20 -17 28 -30 52 -28 53 2 2
30 8 63 15 131 28 278 121 346 219 18 27 36 49 39 47 3 -2 16 -23 29 -48z
m139 -369 l12 -43 -59 -56 c-59 -57 -185 -129 -224 -129 -23 0 -97 47 -97 61
0 5 9 9 20 9 68 0 253 104 302 171 12 16 24 29 28 29 3 0 11 -19 18 -42z"/>
<path d="M495 2258 c-18 -17 -32 -48 -50 -115 -42 -160 -105 -342 -191 -561
-111 -279 -128 -344 -129 -497 0 -142 15 -195 80 -283 50 -69 144 -135 223
-158 67 -20 193 -22 248 -4 145 47 249 145 295 277 14 41 19 83 19 159 0 154
-24 249 -125 492 -71 173 -122 320 -176 507 -53 186 -65 204 -131 205 -24 0
-46 -8 -63 -22z m120 -203 c52 -181 121 -380 181 -523 24 -58 42 -107 39 -110
-6 -6 -50 91 -54 119 0 5 -5 7 -11 4 -6 -4 -7 1 -3 12 3 10 3 15 -2 11 -10 -9
-35 10 -35 25 0 6 7 2 16 -9 9 -11 13 -13 10 -4 -2 8 -10 32 -17 52 -7 22 -20
38 -32 42 -17 4 -18 7 -7 20 14 18 15 18 -25 21 -20 1 -29 6 -27 16 2 8 0 11
-4 7 -4 -4 -14 -2 -23 4 -14 11 -14 10 0 -7 9 -11 14 -27 12 -35 -4 -12 -3
-12 5 -1 6 8 12 9 16 3 3 -5 -1 -15 -8 -22 -12 -9 -17 -7 -24 7 -6 10 -10 23
-11 28 -1 6 -9 10 -18 10 -10 0 -25 4 -33 10 -12 7 -13 6 -3 -6 14 -18 -4 -55
-27 -54 -16 1 -15 24 2 40 8 7 9 4 4 -10 -6 -16 -5 -18 5 -7 10 9 10 15 1 24
-7 7 -12 8 -12 4 0 -5 -8 -2 -17 5 -16 12 -17 12 -6 -2 10 -12 9 -20 -3 -37
-8 -12 -21 -19 -29 -16 -13 5 -13 10 0 34 10 19 11 31 5 35 -6 4 -9 3 -8 -2 4
-16 -14 -53 -23 -47 -6 4 -6 11 1 19 8 9 8 15 0 20 -6 4 -9 3 -8 -2 2 -4 -1
-8 -7 -8 -5 0 -9 4 -7 8 1 5 -2 5 -8 2 -8 -5 -6 -12 4 -24 20 -22 1 -48 -21
-29 -8 6 -13 7 -12 2 2 -5 -5 -26 -14 -48 -19 -44 -20 -49 -8 -42 4 3 16 -3
26 -14 17 -19 35 -19 35 1 0 6 -4 8 -9 5 -4 -3 -16 3 -25 13 -12 14 -14 24 -7
42 9 21 10 22 11 4 l1 -20 9 20 9 20 1 -20 1 -20 9 20 c6 13 9 15 9 5 1 -8 8
-27 15 -42 9 -17 11 -30 5 -34 -5 -3 -9 -2 -8 3 1 4 -3 19 -9 33 -6 14 -11 18
-12 10 0 -13 -1 -13 -10 0 -9 14 -10 13 -10 -17 0 -5 6 -8 13 -8 6 0 13 -10
13 -23 1 -12 -1 -20 -4 -17 -3 2 -12 -1 -21 -7 -9 -7 -13 -8 -9 -4 4 5 3 16
-4 23 -10 12 -15 11 -31 -9 -16 -20 -17 -21 -8 -2 6 12 8 24 4 28 -8 7 -76
-146 -105 -236 -12 -37 -24 -66 -26 -63 -6 6 26 98 93 265 73 179 130 343 179
517 38 134 43 146 58 141 5 -2 29 -71 53 -153z m-10 -345 c-2 -3 4 -18 13 -33
l18 -26 14 22 c8 12 13 25 12 29 -1 4 7 6 18 5 13 -1 16 -5 10 -12 -7 -8 -1
-19 15 -33 26 -23 32 -46 15 -57 -6 -4 -8 -10 -5 -15 3 -5 1 -12 -5 -15 -8 -5
-7 -12 2 -23 7 -10 1 -7 -13 6 -22 19 -28 20 -37 9 -7 -8 -10 -17 -7 -20 3 -4
2 -4 -2 -1 -8 5 -9 9 -12 35 0 5 -7 7 -13 3 -7 -4 -9 -3 -5 1 15 17 36 14 29
-3 -5 -14 -3 -15 10 -4 13 10 14 17 4 37 -9 21 -12 22 -18 7 -6 -15 -7 -14 -8
3 -1 19 -2 19 -10 -1 -5 -12 -13 -25 -19 -28 -5 -4 -8 -14 -6 -24 2 -13 -3
-18 -21 -18 -13 0 -21 2 -18 6 3 3 10 5 15 5 5 0 9 3 9 8 0 4 -2 6 -4 5 -8 -6
-46 36 -47 51 0 11 -3 9 -9 -5 -9 -22 -32 -43 -29 -27 1 4 1 17 -1 28 l-1 20
-8 -20 c-5 -11 -4 -28 1 -39 12 -22 -5 -46 -17 -25 -5 8 -4 10 3 5 17 -10 15
-1 -8 41 -11 21 -20 44 -20 51 0 9 -6 12 -16 8 -14 -5 -15 -4 -4 9 16 19 30
10 31 -18 0 -21 1 -21 9 -2 l9 20 1 -20 c1 -18 2 -18 11 3 9 24 29 22 29 -4 0
-8 5 -12 10 -9 6 4 7 11 4 17 -4 7 -2 8 4 4 6 -4 17 5 26 22 8 16 22 29 30 29
8 0 13 -3 11 -7z m-56 -151 c-5 -10 -12 -19 -15 -19 -2 0 0 9 6 20 6 11 8 20
5 20 -3 0 -8 0 -12 0 -5 0 -8 -4 -8 -9 0 -6 -7 -16 -15 -23 -12 -11 -12 -11
-1 5 7 9 10 17 6 17 -4 0 -2 7 5 15 19 22 43 0 29 -26z m190 -3 c9 -11 9 -16
-1 -22 -7 -4 -10 -4 -6 1 4 4 3 14 -3 22 -6 7 -9 13 -6 13 2 0 10 -6 16 -14z
m-54 -5 c3 -5 2 -12 -3 -15 -5 -3 -9 1 -9 9 0 17 3 19 12 6z m184 -211 c0 -8
-7 1 -14 20 -18 46 -17 64 0 25 8 -16 14 -37 14 -45z m-642 -92 c-3 -8 -6 -5
-6 6 -1 11 2 17 5 13 3 -3 4 -12 1 -19z m-10 -60 c-3 -7 -5 -2 -5 12 0 14 2
19 5 13 2 -7 2 -19 0 -25z m232 -7 c53 -38 76 -133 46 -191 -19 -37 -43 -50
-91 -50 -29 0 -44 8 -74 38 -63 63 -67 158 -8 207 37 31 79 30 127 -4z m458
-33 c-3 -8 -6 -5 -6 6 -1 11 2 17 5 13 3 -3 4 -12 1 -19z m10 -80 c-3 -8 -6
-5 -6 6 -1 11 2 17 5 13 3 -3 4 -12 1 -19z"/>
<path d="M486 1703 c-6 -14 -5 -15 5 -6 7 7 10 15 7 18 -3 3 -9 -2 -12 -12z"/>
<path d="M591 1686 c12 -17 12 -19 -3 -14 -9 4 -23 -1 -32 -10 -12 -14 -13
-22 -3 -41 13 -27 41 -35 55 -18 22 29 21 48 -5 74 -14 16 -19 19 -12 9z m9
-25 c0 12 2 12 9 0 5 -7 6 -23 3 -34 -5 -20 -6 -20 -13 -1 -7 19 -8 19 -9 -1
l-1 -20 -9 20 -9 20 -1 -20 -1 -20 -8 20 c-11 27 6 50 25 34 11 -9 14 -8 14 2z"/>
<path d="M566 1652 c-3 -5 1 -9 9 -9 8 0 12 4 9 9 -3 4 -7 8 -9 8 -2 0 -6 -4
-9 -8z"/>
<path d="M649 1659 c-8 -15 -8 -19 0 -15 9 6 32 -31 35 -56 1 -5 6 -8 11 -8 6
0 10 3 11 8 0 4 4 15 8 25 9 19 -5 42 -35 58 -14 7 -21 4 -30 -12z m31 -5 c0
5 7 3 15 -4 8 -7 15 -20 14 -29 0 -12 -2 -11 -9 4 l-9 20 0 -20 c-1 -17 -4
-15 -16 9 -17 32 -20 49 -5 26 5 -8 10 -11 10 -6z"/>
<path d="M501 1660 c0 -8 4 -24 9 -35 5 -13 9 -14 9 -5 0 8 -4 24 -9 35 -5 13
-9 14 -9 5z"/>
<path d="M471 1624 c0 -11 3 -14 6 -6 3 7 2 16 -1 19 -3 4 -6 -2 -5 -13z"/>
<path d="M2084 1516 c-8 -22 1 -66 40 -199 29 -96 35 -133 39 -252 10 -250 56
-485 107 -547 15 -19 22 -21 37 -12 23 14 21 44 -6 116 -36 98 -70 357 -71
539 0 37 -7 86 -16 110 -8 24 -28 91 -43 149 -26 98 -30 105 -54 108 -18 2
-29 -2 -33 -12z"/>
<path d="M1805 1441 c-30 -50 -70 -470 -51 -545 5 -22 12 -27 34 -24 l27 3 6
155 c4 85 15 200 25 255 26 144 25 159 -8 163 -14 2 -29 -2 -33 -7z"/>
</g>
</svg>
